<svg xmlns="http://www.w3.org/2000/svg" xmlns:xlink="http://www.w3.org/1999/xlink" width="500" zoomAndPan="magnify" viewBox="0 0 375 374.999991" height="500" preserveAspectRatio="xMidYMid meet" version="1.0"><defs><g/><clipPath id="id1"><path d="M 157 129 L 224 129 L 224 228 L 157 228 Z M 157 129 " clip-rule="nonzero"/></clipPath><clipPath id="id2"><path d="M 215.128906 235.847656 L 155.925781 226.082031 L 172.164062 127.664062 L 231.363281 137.429688 Z M 215.128906 235.847656 " clip-rule="nonzero"/></clipPath><clipPath id="id3"><path d="M 215.128906 235.847656 L 155.925781 226.082031 L 172.164062 127.664062 L 231.363281 137.429688 Z M 215.128906 235.847656 " clip-rule="nonzero"/></clipPath><clipPath id="id4"><path d="M 138 166 L 168 166 L 168 243 L 138 243 Z M 138 166 " clip-rule="nonzero"/></clipPath><clipPath id="id5"><path d="M 138.242188 239.425781 L 150.636719 166.976562 L 167.640625 169.886719 L 155.246094 242.335938 Z M 138.242188 239.425781 " clip-rule="nonzero"/></clipPath><clipPath id="id6"><path d="M 138.242188 239.425781 L 150.636719 166.976562 L 167.640625 169.886719 L 155.246094 242.335938 Z M 138.242188 239.425781 " clip-rule="nonzero"/></clipPath><clipPath id="id7"><path d="M 305.402344 137.632812 L 365.402344 137.632812 L 365.402344 237.382812 L 305.402344 237.382812 Z M 305.402344 137.632812 " clip-rule="nonzero"/></clipPath><clipPath id="id8"><path d="M 9.597656 137.609375 L 69.597656 137.609375 L 69.597656 237.359375 L 9.597656 237.359375 Z M 9.597656 137.609375 " clip-rule="nonzero"/></clipPath></defs><g fill="rgb(100%, 0%, 100%)" fill-opacity="1"><g transform="translate(65.155192, 220.985215)"><g><path d="M 8.210938 0.203125 L 9.019531 0.101562 L 11.859375 0.203125 L 12.464844 -0.203125 L 12.871094 -0.914062 L 13.175781 -1.417969 L 13.480469 -2.535156 L 14.089844 -4.054688 L 15.101562 -5.980469 L 15.507812 -7.195312 L 15.8125 -7.90625 L 16.015625 -8.613281 L 16.722656 -9.933594 L 17.230469 -11.046875 L 19.96875 -11.046875 L 24.425781 -10.945312 L 26.046875 -10.742188 L 28.277344 -10.640625 L 28.378906 -9.832031 L 28.378906 -5.066406 L 28.277344 -4.054688 L 28.378906 -3.039062 L 28.480469 -1.214844 L 28.683594 -0.203125 L 29.089844 0.101562 L 30.609375 0.101562 L 31.925781 0.203125 L 32.941406 0.101562 L 33.648438 0 L 34.867188 0.101562 L 35.675781 0.101562 L 37.90625 0 L 39.324219 0 L 40.136719 0.101562 L 40.847656 0 C 41.25 0 41.554688 0.101562 41.960938 0 C 42.46875 -0.304688 42.367188 -1.214844 42.265625 -1.621094 L 42.265625 -3.75 L 42.164062 -5.980469 L 42.164062 -6.890625 L 42.0625 -7.703125 L 42.164062 -9.121094 L 42.164062 -10.640625 L 42.0625 -11.351562 L 41.960938 -12.667969 L 41.960938 -13.277344 L 41.757812 -17.128906 L 41.859375 -17.839844 L 41.757812 -19.257812 L 41.859375 -20.777344 L 41.757812 -22.296875 L 41.757812 -23.007812 L 41.65625 -27.667969 L 41.65625 -30.710938 L 41.554688 -31.519531 L 41.453125 -32.738281 L 41.453125 -36.691406 L 41.25 -37.804688 L 41.148438 -39.425781 L 41.148438 -40.035156 L 41.046875 -41.351562 L 41.148438 -41.960938 L 41.046875 -43.378906 L 41.046875 -45.40625 L 40.847656 -46.824219 L 40.847656 -49.054688 L 40.949219 -49.765625 L 40.847656 -51.285156 L 40.847656 -52.703125 L 40.644531 -54.730469 L 40.542969 -56.050781 L 40.542969 -57.46875 L 40.441406 -61.117188 L 40.441406 -62.941406 L 40.238281 -63.550781 L 40.238281 -65.78125 L 39.933594 -70.136719 L 39.222656 -70.644531 L 38.71875 -70.847656 L 37.097656 -70.847656 L 36.183594 -70.746094 L 35.472656 -70.949219 L 34.5625 -70.949219 L 32.636719 -70.847656 L 31.015625 -70.847656 L 30 -70.746094 L 28.074219 -70.847656 L 27.0625 -70.847656 L 26.351562 -70.746094 L 25.945312 -69.632812 L 25.644531 -69.023438 L 25.339844 -68.3125 L 24.425781 -66.488281 L 23.71875 -65.171875 L 23.109375 -63.347656 L 22.90625 -62.839844 L 22.5 -62.230469 L 21.894531 -61.117188 L 21.691406 -60.40625 L 21.488281 -59.800781 L 21.183594 -59.191406 L 20.980469 -58.480469 L 20.066406 -56.65625 L 19.765625 -55.949219 L 19.460938 -54.933594 L 18.851562 -54.023438 L 18.546875 -53.414062 L 18.042969 -52.097656 L 17.230469 -49.96875 L 16.824219 -49.359375 L 16.316406 -48.652344 L 16.015625 -47.230469 L 15.40625 -45.914062 L 15.203125 -45.40625 L 14.898438 -44.089844 L 14.390625 -43.378906 L 14.089844 -42.0625 L 13.785156 -41.453125 L 13.175781 -40.339844 L 12.667969 -38.617188 L 11.960938 -37.296875 L 11.65625 -36.488281 L 10.84375 -33.648438 L 10.539062 -33.042969 L 10.035156 -31.621094 L 9.730469 -31.015625 L 9.425781 -30.304688 L 9.324219 -29.695312 L 8.714844 -28.277344 L 8.515625 -27.570312 L 7.90625 -26.351562 L 7.398438 -25.542969 L 7.195312 -24.628906 L 6.992188 -23.917969 L 6.285156 -22.5 L 5.980469 -21.792969 L 5.472656 -20.472656 L 5.167969 -19.867188 L 5.066406 -19.15625 L 4.863281 -18.546875 L 4.359375 -17.332031 L 3.851562 -16.621094 L 3.648438 -16.015625 L 2.839844 -14.191406 L 2.433594 -12.871094 L 1.316406 -10.441406 L 0.8125 -9.222656 L 0.203125 -8.007812 L -0.8125 -4.964844 L -1.621094 -3.648438 L -2.230469 -2.433594 L -2.332031 -1.824219 L -2.535156 -1.113281 L -2.332031 -0.304688 L -1.417969 -0.101562 L 5.980469 0 L 6.6875 0.101562 Z M 24.933594 -24.222656 L 24.019531 -24.324219 L 22.90625 -24.425781 L 22.09375 -24.425781 L 21.386719 -25.035156 L 21.691406 -25.746094 L 21.894531 -26.65625 L 22.09375 -27.367188 L 22.601562 -29.089844 L 23.007812 -29.796875 L 23.515625 -31.320312 L 23.617188 -32.027344 L 24.222656 -34.257812 L 24.527344 -35.171875 L 24.832031 -35.878906 L 25.136719 -36.792969 L 25.542969 -37.5 L 25.644531 -38.210938 L 26.046875 -39.222656 L 26.453125 -40.035156 L 26.960938 -41.65625 L 27.265625 -42.671875 L 27.769531 -44.292969 L 28.175781 -45.609375 L 28.988281 -45.914062 L 29.089844 -43.582031 L 28.988281 -39.933594 L 28.886719 -36.082031 L 28.988281 -33.648438 L 28.785156 -32.839844 L 28.785156 -31.117188 L 28.683594 -30.40625 L 28.683594 -27.769531 L 28.582031 -26.960938 L 28.683594 -26.148438 L 28.582031 -24.730469 L 27.972656 -24.222656 Z M 24.933594 -24.222656 "/></g></g></g><g fill="rgb(100%, 0%, 100%)" fill-opacity="1"><g transform="translate(110.354477, 220.985215)"><g><path d="M 4.460938 0.101562 L 5.777344 0 L 6.488281 0.101562 L 9.324219 0.101562 L 10.339844 0 L 18.648438 0 L 20.675781 -0.101562 L 22.09375 0.101562 L 23.617188 0 L 25.441406 0.101562 L 27.667969 -0.203125 L 28.988281 -0.40625 L 30.914062 -0.40625 L 31.722656 -1.113281 L 32.128906 -2.738281 L 32.332031 -4.257812 L 32.433594 -4.863281 L 32.433594 -5.574219 L 32.738281 -6.285156 L 33.246094 -9.832031 L 33.546875 -10.640625 L 33.445312 -11.351562 L 33.648438 -12.0625 L 33.75 -13.582031 L 33.144531 -13.886719 L 30.507812 -13.886719 L 28.277344 -13.785156 L 23.007812 -13.785156 L 22.09375 -13.886719 L 21.082031 -13.886719 L 20.574219 -14.390625 L 20.574219 -15.40625 L 20.777344 -16.417969 L 20.878906 -17.535156 L 21.082031 -18.242188 L 21.183594 -18.851562 L 21.285156 -19.5625 L 21.285156 -20.574219 L 21.488281 -21.488281 L 21.589844 -22.804688 L 21.992188 -24.121094 L 22.09375 -25.542969 L 22.296875 -26.351562 L 22.296875 -27.0625 L 22.703125 -28.683594 L 22.804688 -29.394531 L 22.90625 -30.203125 L 23.210938 -31.621094 L 23.3125 -33.144531 L 23.71875 -34.765625 L 23.820312 -35.472656 L 24.121094 -36.996094 L 24.324219 -37.703125 L 24.324219 -39.121094 L 24.527344 -39.832031 L 24.832031 -41.960938 L 24.832031 -42.773438 L 25.035156 -43.480469 L 24.933594 -44.292969 L 25.339844 -45 L 25.644531 -46.320312 L 25.945312 -47.738281 L 26.148438 -48.449219 L 26.25 -49.15625 L 26.453125 -49.96875 L 26.25 -50.777344 L 26.65625 -51.488281 L 26.859375 -52.90625 L 27.265625 -54.328125 L 27.265625 -55.136719 L 27.570312 -56.554688 L 28.378906 -60.101562 L 28.582031 -61.117188 L 28.785156 -62.230469 L 29.089844 -64.359375 L 29.292969 -64.96875 L 29.292969 -65.679688 L 29.898438 -68.109375 L 29.898438 -68.820312 L 30 -69.53125 L 29.695312 -70.746094 L 27.667969 -70.847656 L 23.71875 -70.847656 L 19.96875 -70.949219 L 17.535156 -70.949219 L 15.914062 -70.746094 L 15.609375 -70.136719 L 15.101562 -68.109375 L 14.898438 -67.503906 L 14.898438 -66.792969 L 14.796875 -65.578125 L 14.390625 -64.359375 L 14.089844 -62.738281 L 13.988281 -61.117188 L 13.582031 -60.40625 L 13.582031 -59.800781 L 13.480469 -59.089844 L 13.480469 -58.378906 L 13.074219 -57.773438 L 12.871094 -56.65625 L 12.769531 -55.339844 L 12.566406 -54.527344 L 12.769531 -53.820312 L 12.566406 -53.007812 L 12.164062 -51.589844 L 11.859375 -50.777344 L 11.960938 -49.96875 L 11.65625 -47.839844 L 11.453125 -46.625 L 11.453125 -45.914062 L 10.945312 -44.597656 L 10.945312 -43.175781 L 10.84375 -42.367188 L 10.339844 -41.046875 L 10.136719 -39.832031 L 9.933594 -38.515625 L 9.324219 -35.675781 L 9.324219 -35.171875 L 8.917969 -33.75 L 8.515625 -30.710938 L 8.007812 -29.292969 L 8.007812 -28.582031 L 7.601562 -27.164062 L 7.601562 -26.554688 L 7.5 -25.84375 L 7.398438 -25.238281 L 7.398438 -23.820312 L 7.195312 -23.210938 L 6.992188 -21.792969 L 6.890625 -21.183594 L 6.890625 -20.574219 L 6.589844 -19.867188 L 6.285156 -18.546875 L 6.386719 -17.941406 L 6.082031 -17.230469 L 5.878906 -16.621094 L 5.371094 -15.203125 L 5.371094 -13.988281 L 5.167969 -13.074219 L 4.964844 -11.757812 L 4.863281 -11.148438 L 4.863281 -10.441406 L 4.460938 -9.121094 L 4.460938 -7.601562 L 4.054688 -6.285156 L 3.953125 -5.675781 L 3.851562 -4.964844 L 3.546875 -3.953125 L 3.140625 -2.9375 L 3.039062 -2.332031 L 3.140625 -1.722656 L 3.242188 -1.011719 L 3.648438 -0.40625 Z M 4.460938 0.101562 "/></g></g></g><g fill="rgb(0%, 100%, 100%)" fill-opacity="1"><g transform="translate(61.35438, 220.985215)"><g><path d="M 8.210938 0.203125 L 9.019531 0.101562 L 11.859375 0.203125 L 12.464844 -0.203125 L 12.871094 -0.914062 L 13.175781 -1.417969 L 13.480469 -2.535156 L 14.089844 -4.054688 L 15.101562 -5.980469 L 15.507812 -7.195312 L 15.8125 -7.90625 L 16.015625 -8.613281 L 16.722656 -9.933594 L 17.230469 -11.046875 L 19.96875 -11.046875 L 24.425781 -10.945312 L 26.046875 -10.742188 L 28.277344 -10.640625 L 28.378906 -9.832031 L 28.378906 -5.066406 L 28.277344 -4.054688 L 28.378906 -3.039062 L 28.480469 -1.214844 L 28.683594 -0.203125 L 29.089844 0.101562 L 30.609375 0.101562 L 31.925781 0.203125 L 32.941406 0.101562 L 33.648438 0 L 34.867188 0.101562 L 35.675781 0.101562 L 37.90625 0 L 39.324219 0 L 40.136719 0.101562 L 40.847656 0 C 41.25 0 41.554688 0.101562 41.960938 0 C 42.46875 -0.304688 42.367188 -1.214844 42.265625 -1.621094 L 42.265625 -3.75 L 42.164062 -5.980469 L 42.164062 -6.890625 L 42.0625 -7.703125 L 42.164062 -9.121094 L 42.164062 -10.640625 L 42.0625 -11.351562 L 41.960938 -12.667969 L 41.960938 -13.277344 L 41.757812 -17.128906 L 41.859375 -17.839844 L 41.757812 -19.257812 L 41.859375 -20.777344 L 41.757812 -22.296875 L 41.757812 -23.007812 L 41.65625 -27.667969 L 41.65625 -30.710938 L 41.554688 -31.519531 L 41.453125 -32.738281 L 41.453125 -36.691406 L 41.25 -37.804688 L 41.148438 -39.425781 L 41.148438 -40.035156 L 41.046875 -41.351562 L 41.148438 -41.960938 L 41.046875 -43.378906 L 41.046875 -45.40625 L 40.847656 -46.824219 L 40.847656 -49.054688 L 40.949219 -49.765625 L 40.847656 -51.285156 L 40.847656 -52.703125 L 40.644531 -54.730469 L 40.542969 -56.050781 L 40.542969 -57.46875 L 40.441406 -61.117188 L 40.441406 -62.941406 L 40.238281 -63.550781 L 40.238281 -65.78125 L 39.933594 -70.136719 L 39.222656 -70.644531 L 38.71875 -70.847656 L 37.097656 -70.847656 L 36.183594 -70.746094 L 35.472656 -70.949219 L 34.5625 -70.949219 L 32.636719 -70.847656 L 31.015625 -70.847656 L 30 -70.746094 L 28.074219 -70.847656 L 27.0625 -70.847656 L 26.351562 -70.746094 L 25.945312 -69.632812 L 25.644531 -69.023438 L 25.339844 -68.3125 L 24.425781 -66.488281 L 23.71875 -65.171875 L 23.109375 -63.347656 L 22.90625 -62.839844 L 22.5 -62.230469 L 21.894531 -61.117188 L 21.691406 -60.40625 L 21.488281 -59.800781 L 21.183594 -59.191406 L 20.980469 -58.480469 L 20.066406 -56.65625 L 19.765625 -55.949219 L 19.460938 -54.933594 L 18.851562 -54.023438 L 18.546875 -53.414062 L 18.042969 -52.097656 L 17.230469 -49.96875 L 16.824219 -49.359375 L 16.316406 -48.652344 L 16.015625 -47.230469 L 15.40625 -45.914062 L 15.203125 -45.40625 L 14.898438 -44.089844 L 14.390625 -43.378906 L 14.089844 -42.0625 L 13.785156 -41.453125 L 13.175781 -40.339844 L 12.667969 -38.617188 L 11.960938 -37.296875 L 11.65625 -36.488281 L 10.84375 -33.648438 L 10.539062 -33.042969 L 10.035156 -31.621094 L 9.730469 -31.015625 L 9.425781 -30.304688 L 9.324219 -29.695312 L 8.714844 -28.277344 L 8.515625 -27.570312 L 7.90625 -26.351562 L 7.398438 -25.542969 L 7.195312 -24.628906 L 6.992188 -23.917969 L 6.285156 -22.5 L 5.980469 -21.792969 L 5.472656 -20.472656 L 5.167969 -19.867188 L 5.066406 -19.15625 L 4.863281 -18.546875 L 4.359375 -17.332031 L 3.851562 -16.621094 L 3.648438 -16.015625 L 2.839844 -14.191406 L 2.433594 -12.871094 L 1.316406 -10.441406 L 0.8125 -9.222656 L 0.203125 -8.007812 L -0.8125 -4.964844 L -1.621094 -3.648438 L -2.230469 -2.433594 L -2.332031 -1.824219 L -2.535156 -1.113281 L -2.332031 -0.304688 L -1.417969 -0.101562 L 5.980469 0 L 6.6875 0.101562 Z M 24.933594 -24.222656 L 24.019531 -24.324219 L 22.90625 -24.425781 L 22.09375 -24.425781 L 21.386719 -25.035156 L 21.691406 -25.746094 L 21.894531 -26.65625 L 22.09375 -27.367188 L 22.601562 -29.089844 L 23.007812 -29.796875 L 23.515625 -31.320312 L 23.617188 -32.027344 L 24.222656 -34.257812 L 24.527344 -35.171875 L 24.832031 -35.878906 L 25.136719 -36.792969 L 25.542969 -37.5 L 25.644531 -38.210938 L 26.046875 -39.222656 L 26.453125 -40.035156 L 26.960938 -41.65625 L 27.265625 -42.671875 L 27.769531 -44.292969 L 28.175781 -45.609375 L 28.988281 -45.914062 L 29.089844 -43.582031 L 28.988281 -39.933594 L 28.886719 -36.082031 L 28.988281 -33.648438 L 28.785156 -32.839844 L 28.785156 -31.117188 L 28.683594 -30.40625 L 28.683594 -27.769531 L 28.582031 -26.960938 L 28.683594 -26.148438 L 28.582031 -24.730469 L 27.972656 -24.222656 Z M 24.933594 -24.222656 "/></g></g></g><g fill="rgb(0%, 100%, 100%)" fill-opacity="1"><g transform="translate(106.553665, 220.985215)"><g><path d="M 4.460938 0.101562 L 5.777344 0 L 6.488281 0.101562 L 9.324219 0.101562 L 10.339844 0 L 18.648438 0 L 20.675781 -0.101562 L 22.09375 0.101562 L 23.617188 0 L 25.441406 0.101562 L 27.667969 -0.203125 L 28.988281 -0.40625 L 30.914062 -0.40625 L 31.722656 -1.113281 L 32.128906 -2.738281 L 32.332031 -4.257812 L 32.433594 -4.863281 L 32.433594 -5.574219 L 32.738281 -6.285156 L 33.246094 -9.832031 L 33.546875 -10.640625 L 33.445312 -11.351562 L 33.648438 -12.0625 L 33.75 -13.582031 L 33.144531 -13.886719 L 30.507812 -13.886719 L 28.277344 -13.785156 L 23.007812 -13.785156 L 22.09375 -13.886719 L 21.082031 -13.886719 L 20.574219 -14.390625 L 20.574219 -15.40625 L 20.777344 -16.417969 L 20.878906 -17.535156 L 21.082031 -18.242188 L 21.183594 -18.851562 L 21.285156 -19.5625 L 21.285156 -20.574219 L 21.488281 -21.488281 L 21.589844 -22.804688 L 21.992188 -24.121094 L 22.09375 -25.542969 L 22.296875 -26.351562 L 22.296875 -27.0625 L 22.703125 -28.683594 L 22.804688 -29.394531 L 22.90625 -30.203125 L 23.210938 -31.621094 L 23.3125 -33.144531 L 23.71875 -34.765625 L 23.820312 -35.472656 L 24.121094 -36.996094 L 24.324219 -37.703125 L 24.324219 -39.121094 L 24.527344 -39.832031 L 24.832031 -41.960938 L 24.832031 -42.773438 L 25.035156 -43.480469 L 24.933594 -44.292969 L 25.339844 -45 L 25.644531 -46.320312 L 25.945312 -47.738281 L 26.148438 -48.449219 L 26.25 -49.15625 L 26.453125 -49.96875 L 26.25 -50.777344 L 26.65625 -51.488281 L 26.859375 -52.90625 L 27.265625 -54.328125 L 27.265625 -55.136719 L 27.570312 -56.554688 L 28.378906 -60.101562 L 28.582031 -61.117188 L 28.785156 -62.230469 L 29.089844 -64.359375 L 29.292969 -64.96875 L 29.292969 -65.679688 L 29.898438 -68.109375 L 29.898438 -68.820312 L 30 -69.53125 L 29.695312 -70.746094 L 27.667969 -70.847656 L 23.71875 -70.847656 L 19.96875 -70.949219 L 17.535156 -70.949219 L 15.914062 -70.746094 L 15.609375 -70.136719 L 15.101562 -68.109375 L 14.898438 -67.503906 L 14.898438 -66.792969 L 14.796875 -65.578125 L 14.390625 -64.359375 L 14.089844 -62.738281 L 13.988281 -61.117188 L 13.582031 -60.40625 L 13.582031 -59.800781 L 13.480469 -59.089844 L 13.480469 -58.378906 L 13.074219 -57.773438 L 12.871094 -56.65625 L 12.769531 -55.339844 L 12.566406 -54.527344 L 12.769531 -53.820312 L 12.566406 -53.007812 L 12.164062 -51.589844 L 11.859375 -50.777344 L 11.960938 -49.96875 L 11.65625 -47.839844 L 11.453125 -46.625 L 11.453125 -45.914062 L 10.945312 -44.597656 L 10.945312 -43.175781 L 10.84375 -42.367188 L 10.339844 -41.046875 L 10.136719 -39.832031 L 9.933594 -38.515625 L 9.324219 -35.675781 L 9.324219 -35.171875 L 8.917969 -33.75 L 8.515625 -30.710938 L 8.007812 -29.292969 L 8.007812 -28.582031 L 7.601562 -27.164062 L 7.601562 -26.554688 L 7.5 -25.84375 L 7.398438 -25.238281 L 7.398438 -23.820312 L 7.195312 -23.210938 L 6.992188 -21.792969 L 6.890625 -21.183594 L 6.890625 -20.574219 L 6.589844 -19.867188 L 6.285156 -18.546875 L 6.386719 -17.941406 L 6.082031 -17.230469 L 5.878906 -16.621094 L 5.371094 -15.203125 L 5.371094 -13.988281 L 5.167969 -13.074219 L 4.964844 -11.757812 L 4.863281 -11.148438 L 4.863281 -10.441406 L 4.460938 -9.121094 L 4.460938 -7.601562 L 4.054688 -6.285156 L 3.953125 -5.675781 L 3.851562 -4.964844 L 3.546875 -3.953125 L 3.140625 -2.9375 L 3.039062 -2.332031 L 3.140625 -1.722656 L 3.242188 -1.011719 L 3.648438 -0.40625 Z M 4.460938 0.101562 "/></g></g></g><g fill="rgb(0%, 0%, 0%)" fill-opacity="1"><g transform="translate(63.254786, 220.985215)"><g><path d="M 8.210938 0.203125 L 9.019531 0.101562 L 11.859375 0.203125 L 12.464844 -0.203125 L 12.871094 -0.914062 L 13.175781 -1.417969 L 13.480469 -2.535156 L 14.089844 -4.054688 L 15.101562 -5.980469 L 15.507812 -7.195312 L 15.8125 -7.90625 L 16.015625 -8.613281 L 16.722656 -9.933594 L 17.230469 -11.046875 L 19.96875 -11.046875 L 24.425781 -10.945312 L 26.046875 -10.742188 L 28.277344 -10.640625 L 28.378906 -9.832031 L 28.378906 -5.066406 L 28.277344 -4.054688 L 28.378906 -3.039062 L 28.480469 -1.214844 L 28.683594 -0.203125 L 29.089844 0.101562 L 30.609375 0.101562 L 31.925781 0.203125 L 32.941406 0.101562 L 33.648438 0 L 34.867188 0.101562 L 35.675781 0.101562 L 37.90625 0 L 39.324219 0 L 40.136719 0.101562 L 40.847656 0 C 41.25 0 41.554688 0.101562 41.960938 0 C 42.46875 -0.304688 42.367188 -1.214844 42.265625 -1.621094 L 42.265625 -3.75 L 42.164062 -5.980469 L 42.164062 -6.890625 L 42.0625 -7.703125 L 42.164062 -9.121094 L 42.164062 -10.640625 L 42.0625 -11.351562 L 41.960938 -12.667969 L 41.960938 -13.277344 L 41.757812 -17.128906 L 41.859375 -17.839844 L 41.757812 -19.257812 L 41.859375 -20.777344 L 41.757812 -22.296875 L 41.757812 -23.007812 L 41.65625 -27.667969 L 41.65625 -30.710938 L 41.554688 -31.519531 L 41.453125 -32.738281 L 41.453125 -36.691406 L 41.25 -37.804688 L 41.148438 -39.425781 L 41.148438 -40.035156 L 41.046875 -41.351562 L 41.148438 -41.960938 L 41.046875 -43.378906 L 41.046875 -45.40625 L 40.847656 -46.824219 L 40.847656 -49.054688 L 40.949219 -49.765625 L 40.847656 -51.285156 L 40.847656 -52.703125 L 40.644531 -54.730469 L 40.542969 -56.050781 L 40.542969 -57.46875 L 40.441406 -61.117188 L 40.441406 -62.941406 L 40.238281 -63.550781 L 40.238281 -65.78125 L 39.933594 -70.136719 L 39.222656 -70.644531 L 38.71875 -70.847656 L 37.097656 -70.847656 L 36.183594 -70.746094 L 35.472656 -70.949219 L 34.5625 -70.949219 L 32.636719 -70.847656 L 31.015625 -70.847656 L 30 -70.746094 L 28.074219 -70.847656 L 27.0625 -70.847656 L 26.351562 -70.746094 L 25.945312 -69.632812 L 25.644531 -69.023438 L 25.339844 -68.3125 L 24.425781 -66.488281 L 23.71875 -65.171875 L 23.109375 -63.347656 L 22.90625 -62.839844 L 22.5 -62.230469 L 21.894531 -61.117188 L 21.691406 -60.40625 L 21.488281 -59.800781 L 21.183594 -59.191406 L 20.980469 -58.480469 L 20.066406 -56.65625 L 19.765625 -55.949219 L 19.460938 -54.933594 L 18.851562 -54.023438 L 18.546875 -53.414062 L 18.042969 -52.097656 L 17.230469 -49.96875 L 16.824219 -49.359375 L 16.316406 -48.652344 L 16.015625 -47.230469 L 15.40625 -45.914062 L 15.203125 -45.40625 L 14.898438 -44.089844 L 14.390625 -43.378906 L 14.089844 -42.0625 L 13.785156 -41.453125 L 13.175781 -40.339844 L 12.667969 -38.617188 L 11.960938 -37.296875 L 11.65625 -36.488281 L 10.84375 -33.648438 L 10.539062 -33.042969 L 10.035156 -31.621094 L 9.730469 -31.015625 L 9.425781 -30.304688 L 9.324219 -29.695312 L 8.714844 -28.277344 L 8.515625 -27.570312 L 7.90625 -26.351562 L 7.398438 -25.542969 L 7.195312 -24.628906 L 6.992188 -23.917969 L 6.285156 -22.5 L 5.980469 -21.792969 L 5.472656 -20.472656 L 5.167969 -19.867188 L 5.066406 -19.15625 L 4.863281 -18.546875 L 4.359375 -17.332031 L 3.851562 -16.621094 L 3.648438 -16.015625 L 2.839844 -14.191406 L 2.433594 -12.871094 L 1.316406 -10.441406 L 0.8125 -9.222656 L 0.203125 -8.007812 L -0.8125 -4.964844 L -1.621094 -3.648438 L -2.230469 -2.433594 L -2.332031 -1.824219 L -2.535156 -1.113281 L -2.332031 -0.304688 L -1.417969 -0.101562 L 5.980469 0 L 6.6875 0.101562 Z M 24.933594 -24.222656 L 24.019531 -24.324219 L 22.90625 -24.425781 L 22.09375 -24.425781 L 21.386719 -25.035156 L 21.691406 -25.746094 L 21.894531 -26.65625 L 22.09375 -27.367188 L 22.601562 -29.089844 L 23.007812 -29.796875 L 23.515625 -31.320312 L 23.617188 -32.027344 L 24.222656 -34.257812 L 24.527344 -35.171875 L 24.832031 -35.878906 L 25.136719 -36.792969 L 25.542969 -37.5 L 25.644531 -38.210938 L 26.046875 -39.222656 L 26.453125 -40.035156 L 26.960938 -41.65625 L 27.265625 -42.671875 L 27.769531 -44.292969 L 28.175781 -45.609375 L 28.988281 -45.914062 L 29.089844 -43.582031 L 28.988281 -39.933594 L 28.886719 -36.082031 L 28.988281 -33.648438 L 28.785156 -32.839844 L 28.785156 -31.117188 L 28.683594 -30.40625 L 28.683594 -27.769531 L 28.582031 -26.960938 L 28.683594 -26.148438 L 28.582031 -24.730469 L 27.972656 -24.222656 Z M 24.933594 -24.222656 "/></g></g></g><g fill="rgb(0%, 0%, 0%)" fill-opacity="1"><g transform="translate(108.454071, 220.985215)"><g><path d="M 4.460938 0.101562 L 5.777344 0 L 6.488281 0.101562 L 9.324219 0.101562 L 10.339844 0 L 18.648438 0 L 20.675781 -0.101562 L 22.09375 0.101562 L 23.617188 0 L 25.441406 0.101562 L 27.667969 -0.203125 L 28.988281 -0.40625 L 30.914062 -0.40625 L 31.722656 -1.113281 L 32.128906 -2.738281 L 32.332031 -4.257812 L 32.433594 -4.863281 L 32.433594 -5.574219 L 32.738281 -6.285156 L 33.246094 -9.832031 L 33.546875 -10.640625 L 33.445312 -11.351562 L 33.648438 -12.0625 L 33.75 -13.582031 L 33.144531 -13.886719 L 30.507812 -13.886719 L 28.277344 -13.785156 L 23.007812 -13.785156 L 22.09375 -13.886719 L 21.082031 -13.886719 L 20.574219 -14.390625 L 20.574219 -15.40625 L 20.777344 -16.417969 L 20.878906 -17.535156 L 21.082031 -18.242188 L 21.183594 -18.851562 L 21.285156 -19.5625 L 21.285156 -20.574219 L 21.488281 -21.488281 L 21.589844 -22.804688 L 21.992188 -24.121094 L 22.09375 -25.542969 L 22.296875 -26.351562 L 22.296875 -27.0625 L 22.703125 -28.683594 L 22.804688 -29.394531 L 22.90625 -30.203125 L 23.210938 -31.621094 L 23.3125 -33.144531 L 23.71875 -34.765625 L 23.820312 -35.472656 L 24.121094 -36.996094 L 24.324219 -37.703125 L 24.324219 -39.121094 L 24.527344 -39.832031 L 24.832031 -41.960938 L 24.832031 -42.773438 L 25.035156 -43.480469 L 24.933594 -44.292969 L 25.339844 -45 L 25.644531 -46.320312 L 25.945312 -47.738281 L 26.148438 -48.449219 L 26.25 -49.15625 L 26.453125 -49.96875 L 26.25 -50.777344 L 26.65625 -51.488281 L 26.859375 -52.90625 L 27.265625 -54.328125 L 27.265625 -55.136719 L 27.570312 -56.554688 L 28.378906 -60.101562 L 28.582031 -61.117188 L 28.785156 -62.230469 L 29.089844 -64.359375 L 29.292969 -64.96875 L 29.292969 -65.679688 L 29.898438 -68.109375 L 29.898438 -68.820312 L 30 -69.53125 L 29.695312 -70.746094 L 27.667969 -70.847656 L 23.71875 -70.847656 L 19.96875 -70.949219 L 17.535156 -70.949219 L 15.914062 -70.746094 L 15.609375 -70.136719 L 15.101562 -68.109375 L 14.898438 -67.503906 L 14.898438 -66.792969 L 14.796875 -65.578125 L 14.390625 -64.359375 L 14.089844 -62.738281 L 13.988281 -61.117188 L 13.582031 -60.40625 L 13.582031 -59.800781 L 13.480469 -59.089844 L 13.480469 -58.378906 L 13.074219 -57.773438 L 12.871094 -56.65625 L 12.769531 -55.339844 L 12.566406 -54.527344 L 12.769531 -53.820312 L 12.566406 -53.007812 L 12.164062 -51.589844 L 11.859375 -50.777344 L 11.960938 -49.96875 L 11.65625 -47.839844 L 11.453125 -46.625 L 11.453125 -45.914062 L 10.945312 -44.597656 L 10.945312 -43.175781 L 10.84375 -42.367188 L 10.339844 -41.046875 L 10.136719 -39.832031 L 9.933594 -38.515625 L 9.324219 -35.675781 L 9.324219 -35.171875 L 8.917969 -33.75 L 8.515625 -30.710938 L 8.007812 -29.292969 L 8.007812 -28.582031 L 7.601562 -27.164062 L 7.601562 -26.554688 L 7.5 -25.84375 L 7.398438 -25.238281 L 7.398438 -23.820312 L 7.195312 -23.210938 L 6.992188 -21.792969 L 6.890625 -21.183594 L 6.890625 -20.574219 L 6.589844 -19.867188 L 6.285156 -18.546875 L 6.386719 -17.941406 L 6.082031 -17.230469 L 5.878906 -16.621094 L 5.371094 -15.203125 L 5.371094 -13.988281 L 5.167969 -13.074219 L 4.964844 -11.757812 L 4.863281 -11.148438 L 4.863281 -10.441406 L 4.460938 -9.121094 L 4.460938 -7.601562 L 4.054688 -6.285156 L 3.953125 -5.675781 L 3.851562 -4.964844 L 3.546875 -3.953125 L 3.140625 -2.9375 L 3.039062 -2.332031 L 3.140625 -1.722656 L 3.242188 -1.011719 L 3.648438 -0.40625 Z M 4.460938 0.101562 "/></g></g></g><g fill="rgb(100%, 0%, 100%)" fill-opacity="1"><g transform="translate(146.02628, 220.985215)"><g/></g></g><g fill="rgb(100%, 0%, 100%)" fill-opacity="1"><g transform="translate(168.727271, 220.985215)"><g/></g></g><g fill="rgb(100%, 0%, 100%)" fill-opacity="1"><g transform="translate(191.428262, 220.985215)"><g/></g></g><g fill="rgb(0%, 100%, 100%)" fill-opacity="1"><g transform="translate(142.225469, 220.985215)"><g/></g></g><g fill="rgb(0%, 100%, 100%)" fill-opacity="1"><g transform="translate(164.92646, 220.985215)"><g/></g></g><g fill="rgb(0%, 100%, 100%)" fill-opacity="1"><g transform="translate(187.627451, 220.985215)"><g/></g></g><g fill="rgb(0%, 0%, 0%)" fill-opacity="1"><g transform="translate(144.125875, 220.985215)"><g/></g></g><g fill="rgb(0%, 0%, 0%)" fill-opacity="1"><g transform="translate(166.826866, 220.985215)"><g/></g></g><g fill="rgb(0%, 0%, 0%)" fill-opacity="1"><g transform="translate(189.527857, 220.985215)"><g/></g></g><g fill="rgb(100%, 0%, 100%)" fill-opacity="1"><g transform="translate(214.123936, 220.985215)"><g><path d="M 34.460938 0.203125 L 35.273438 0.101562 L 37.296875 0.101562 L 38.617188 0 L 39.222656 -0.101562 L 40.746094 -0.101562 L 41.960938 -0.40625 L 42.367188 -1.011719 L 42.570312 -1.722656 L 42.570312 -2.535156 L 42.773438 -3.242188 L 42.875 -4.054688 L 43.175781 -4.5625 L 43.378906 -5.777344 L 43.480469 -6.890625 L 43.683594 -7.601562 L 43.886719 -8.917969 L 43.988281 -9.628906 L 44.292969 -11.046875 L 44.394531 -12.667969 L 44.496094 -14.089844 L 44.699219 -14.695312 L 45 -15.8125 L 45.304688 -17.230469 L 45.40625 -17.941406 L 45.40625 -18.75 L 45.710938 -20.167969 L 45.8125 -20.878906 L 46.015625 -21.488281 L 46.21875 -22.195312 L 46.117188 -22.804688 L 46.726562 -24.933594 L 46.625 -25.542969 L 46.824219 -26.25 L 47.128906 -27.667969 L 47.332031 -28.785156 L 47.332031 -29.394531 L 47.738281 -31.21875 L 47.839844 -31.925781 L 48.347656 -33.246094 L 48.449219 -33.953125 L 48.449219 -35.273438 L 48.550781 -35.980469 L 48.851562 -36.589844 L 48.652344 -37.296875 L 48.652344 -38.109375 L 49.054688 -38.71875 L 49.15625 -39.425781 L 49.460938 -40.847656 L 49.5625 -41.453125 L 49.664062 -42.972656 L 50.171875 -44.394531 L 50.273438 -45.914062 L 50.476562 -47.535156 L 50.675781 -48.851562 L 50.777344 -49.460938 L 51.285156 -50.675781 L 51.386719 -51.285156 L 51.589844 -52.601562 L 51.691406 -53.414062 L 51.894531 -54.125 L 51.996094 -54.832031 L 52.300781 -56.152344 L 52.402344 -56.859375 L 52.601562 -58.179688 L 52.601562 -58.886719 L 52.703125 -60.203125 L 52.90625 -61.015625 L 53.109375 -61.726562 L 53.210938 -62.433594 L 53.210938 -63.246094 L 53.3125 -64.664062 L 53.71875 -65.878906 L 53.71875 -66.589844 L 53.820312 -67.199219 L 53.71875 -67.605469 L 54.125 -68.210938 L 54.023438 -68.921875 L 54.125 -69.53125 L 53.414062 -70.441406 L 52.703125 -70.746094 L 51.082031 -70.949219 L 48.246094 -70.949219 L 46.21875 -71.050781 L 42.570312 -71.050781 L 41.65625 -70.949219 L 41.046875 -70.847656 L 40.238281 -69.933594 L 40.136719 -69.328125 L 40.238281 -68.617188 L 40.035156 -67.90625 L 39.628906 -66.996094 L 39.527344 -66.386719 L 39.324219 -65.070312 L 39.121094 -64.460938 L 38.820312 -63.144531 L 38.820312 -62.332031 L 38.414062 -60.914062 L 38.3125 -60.203125 L 38.414062 -59.394531 L 38.414062 -58.179688 L 38.007812 -57.265625 L 37.90625 -55.949219 L 37.601562 -54.628906 L 37.601562 -53.921875 L 37.398438 -53.3125 L 37.296875 -52.601562 L 37.199219 -51.792969 L 37.097656 -51.082031 L 36.996094 -50.476562 L 36.488281 -49.15625 L 36.691406 -48.550781 L 36.183594 -47.027344 L 36.082031 -46.320312 L 36.082031 -45.609375 L 35.675781 -44.699219 L 35.472656 -43.582031 L 35.371094 -43.074219 L 33.246094 -43.175781 L 32.433594 -43.074219 L 31.21875 -43.175781 L 30.40625 -43.074219 L 27.46875 -43.175781 L 26.65625 -43.175781 L 25.945312 -43.277344 L 26.148438 -44.089844 L 26.25 -44.699219 L 26.453125 -45.507812 L 26.351562 -46.117188 L 26.554688 -46.824219 L 26.859375 -48.144531 L 26.757812 -48.851562 L 27.0625 -49.460938 L 27.164062 -50.171875 L 27.367188 -50.980469 L 27.570312 -51.488281 L 27.570312 -52.097656 L 27.667969 -53.3125 L 27.871094 -53.820312 L 27.972656 -55.136719 L 28.175781 -55.949219 L 28.378906 -56.65625 L 28.378906 -58.277344 L 28.683594 -58.988281 L 28.785156 -60.203125 L 28.988281 -61.625 L 29.394531 -63.550781 L 29.496094 -64.460938 L 29.796875 -65.375 L 29.898438 -66.792969 L 30 -67.402344 L 30.304688 -68.617188 L 30.203125 -69.328125 L 30.203125 -69.933594 L 30 -70.847656 L 28.988281 -71.050781 L 27.769531 -71.253906 L 26.757812 -70.949219 L 24.527344 -70.949219 L 23.109375 -71.050781 L 18.953125 -70.949219 L 16.417969 -70.949219 L 15.507812 -70.441406 L 15.40625 -69.328125 L 15.304688 -68.109375 L 15 -66.792969 L 14.796875 -66.082031 L 14.898438 -65.273438 L 14.59375 -64.5625 L 14.492188 -63.855469 L 14.292969 -63.144531 L 14.390625 -61.726562 L 13.683594 -60.40625 L 13.683594 -58.277344 L 13.378906 -56.960938 L 13.277344 -56.351562 L 13.175781 -55.542969 L 12.769531 -54.730469 L 12.769531 -53.3125 L 12.667969 -52.804688 L 12.367188 -50.675781 L 12.164062 -49.867188 L 11.960938 -48.550781 L 11.554688 -46.421875 L 11.453125 -45 L 11.351562 -44.292969 L 10.742188 -42.875 L 10.640625 -41.453125 L 10.441406 -40.035156 L 10.339844 -39.425781 L 9.832031 -36.488281 L 9.425781 -35.070312 L 9.425781 -34.257812 L 9.121094 -33.445312 L 8.816406 -32.738281 L 8.613281 -31.21875 L 8.613281 -30.507812 L 8.414062 -29.292969 L 8.109375 -28.277344 L 8.007812 -26.960938 L 7.601562 -25.542969 L 7.703125 -24.832031 L 7.5 -24.019531 L 7.398438 -23.414062 L 7.195312 -22.804688 L 6.6875 -19.257812 L 6.488281 -18.445312 L 6.183594 -17.027344 L 6.183594 -16.21875 L 6.082031 -15.507812 L 5.675781 -14.59375 L 5.269531 -13.886719 L 5.371094 -12.464844 L 4.964844 -11.046875 L 5.066406 -10.238281 L 4.863281 -9.527344 L 4.257812 -8.414062 L 4.460938 -7.703125 L 4.257812 -7.09375 L 4.257812 -6.386719 L 4.054688 -5.472656 L 3.953125 -4.460938 L 3.445312 -3.140625 L 3.039062 -2.230469 L 3.039062 -1.417969 L 3.445312 -0.304688 L 5.472656 -0.101562 L 8.714844 -0.101562 L 9.933594 0.101562 L 10.640625 -0.101562 L 11.351562 -0.203125 L 12.0625 0.101562 L 12.871094 0.101562 L 14.390625 -0.101562 L 15.609375 -0.203125 L 16.519531 -0.304688 L 17.332031 -0.710938 L 17.839844 -1.722656 L 18.042969 -3.242188 L 18.140625 -3.953125 L 18.34375 -4.765625 L 18.546875 -6.183594 L 18.546875 -6.890625 L 18.851562 -8.3125 L 18.953125 -9.121094 L 19.5625 -11.960938 L 19.765625 -13.480469 L 20.167969 -14.796875 L 20.269531 -15.304688 L 20.777344 -16.519531 L 20.675781 -17.128906 L 21.285156 -19.359375 L 21.792969 -21.691406 L 21.992188 -22.398438 L 21.992188 -24.121094 L 22.398438 -24.832031 L 22.601562 -26.148438 L 23.007812 -27.570312 L 23.109375 -28.378906 L 23.210938 -28.886719 L 24.933594 -28.785156 L 26.453125 -28.480469 L 29.695312 -28.785156 L 30.609375 -28.582031 L 31.320312 -28.582031 L 32.230469 -28.683594 L 32.027344 -27.46875 L 32.027344 -26.757812 L 31.824219 -25.339844 L 31.621094 -24.628906 L 31.320312 -23.210938 L 31.320312 -21.992188 L 31.117188 -20.980469 L 30.710938 -19.867188 L 30.101562 -16.824219 L 29.898438 -14.898438 L 29.59375 -13.378906 L 29.496094 -11.960938 L 29.292969 -11.453125 L 29.191406 -10.136719 L 29.089844 -9.425781 L 29.089844 -8.714844 L 28.988281 -8.007812 L 28.582031 -5.878906 L 28.582031 -4.460938 L 28.175781 -3.75 L 27.972656 -2.839844 L 27.871094 -1.925781 L 27.769531 -1.113281 L 28.378906 -0.203125 L 29.089844 -0.101562 L 29.796875 -0.101562 L 30.914062 0 L 33.648438 0 Z M 34.460938 0.203125 "/></g></g></g><g fill="rgb(100%, 0%, 100%)" fill-opacity="1"><g transform="translate(265.099808, 220.985215)"><g><path d="M 8.210938 0.203125 L 9.019531 0.101562 L 11.859375 0.203125 L 12.464844 -0.203125 L 12.871094 -0.914062 L 13.175781 -1.417969 L 13.480469 -2.535156 L 14.089844 -4.054688 L 15.101562 -5.980469 L 15.507812 -7.195312 L 15.8125 -7.90625 L 16.015625 -8.613281 L 16.722656 -9.933594 L 17.230469 -11.046875 L 19.96875 -11.046875 L 24.425781 -10.945312 L 26.046875 -10.742188 L 28.277344 -10.640625 L 28.378906 -9.832031 L 28.378906 -5.066406 L 28.277344 -4.054688 L 28.378906 -3.039062 L 28.480469 -1.214844 L 28.683594 -0.203125 L 29.089844 0.101562 L 30.609375 0.101562 L 31.925781 0.203125 L 32.941406 0.101562 L 33.648438 0 L 34.867188 0.101562 L 35.675781 0.101562 L 37.90625 0 L 39.324219 0 L 40.136719 0.101562 L 40.847656 0 C 41.25 0 41.554688 0.101562 41.960938 0 C 42.46875 -0.304688 42.367188 -1.214844 42.265625 -1.621094 L 42.265625 -3.75 L 42.164062 -5.980469 L 42.164062 -6.890625 L 42.0625 -7.703125 L 42.164062 -9.121094 L 42.164062 -10.640625 L 42.0625 -11.351562 L 41.960938 -12.667969 L 41.960938 -13.277344 L 41.757812 -17.128906 L 41.859375 -17.839844 L 41.757812 -19.257812 L 41.859375 -20.777344 L 41.757812 -22.296875 L 41.757812 -23.007812 L 41.65625 -27.667969 L 41.65625 -30.710938 L 41.554688 -31.519531 L 41.453125 -32.738281 L 41.453125 -36.691406 L 41.25 -37.804688 L 41.148438 -39.425781 L 41.148438 -40.035156 L 41.046875 -41.351562 L 41.148438 -41.960938 L 41.046875 -43.378906 L 41.046875 -45.40625 L 40.847656 -46.824219 L 40.847656 -49.054688 L 40.949219 -49.765625 L 40.847656 -51.285156 L 40.847656 -52.703125 L 40.644531 -54.730469 L 40.542969 -56.050781 L 40.542969 -57.46875 L 40.441406 -61.117188 L 40.441406 -62.941406 L 40.238281 -63.550781 L 40.238281 -65.78125 L 39.933594 -70.136719 L 39.222656 -70.644531 L 38.71875 -70.847656 L 37.097656 -70.847656 L 36.183594 -70.746094 L 35.472656 -70.949219 L 34.5625 -70.949219 L 32.636719 -70.847656 L 31.015625 -70.847656 L 30 -70.746094 L 28.074219 -70.847656 L 27.0625 -70.847656 L 26.351562 -70.746094 L 25.945312 -69.632812 L 25.644531 -69.023438 L 25.339844 -68.3125 L 24.425781 -66.488281 L 23.71875 -65.171875 L 23.109375 -63.347656 L 22.90625 -62.839844 L 22.5 -62.230469 L 21.894531 -61.117188 L 21.691406 -60.40625 L 21.488281 -59.800781 L 21.183594 -59.191406 L 20.980469 -58.480469 L 20.066406 -56.65625 L 19.765625 -55.949219 L 19.460938 -54.933594 L 18.851562 -54.023438 L 18.546875 -53.414062 L 18.042969 -52.097656 L 17.230469 -49.96875 L 16.824219 -49.359375 L 16.316406 -48.652344 L 16.015625 -47.230469 L 15.40625 -45.914062 L 15.203125 -45.40625 L 14.898438 -44.089844 L 14.390625 -43.378906 L 14.089844 -42.0625 L 13.785156 -41.453125 L 13.175781 -40.339844 L 12.667969 -38.617188 L 11.960938 -37.296875 L 11.65625 -36.488281 L 10.84375 -33.648438 L 10.539062 -33.042969 L 10.035156 -31.621094 L 9.730469 -31.015625 L 9.425781 -30.304688 L 9.324219 -29.695312 L 8.714844 -28.277344 L 8.515625 -27.570312 L 7.90625 -26.351562 L 7.398438 -25.542969 L 7.195312 -24.628906 L 6.992188 -23.917969 L 6.285156 -22.5 L 5.980469 -21.792969 L 5.472656 -20.472656 L 5.167969 -19.867188 L 5.066406 -19.15625 L 4.863281 -18.546875 L 4.359375 -17.332031 L 3.851562 -16.621094 L 3.648438 -16.015625 L 2.839844 -14.191406 L 2.433594 -12.871094 L 1.316406 -10.441406 L 0.8125 -9.222656 L 0.203125 -8.007812 L -0.8125 -4.964844 L -1.621094 -3.648438 L -2.230469 -2.433594 L -2.332031 -1.824219 L -2.535156 -1.113281 L -2.332031 -0.304688 L -1.417969 -0.101562 L 5.980469 0 L 6.6875 0.101562 Z M 24.933594 -24.222656 L 24.019531 -24.324219 L 22.90625 -24.425781 L 22.09375 -24.425781 L 21.386719 -25.035156 L 21.691406 -25.746094 L 21.894531 -26.65625 L 22.09375 -27.367188 L 22.601562 -29.089844 L 23.007812 -29.796875 L 23.515625 -31.320312 L 23.617188 -32.027344 L 24.222656 -34.257812 L 24.527344 -35.171875 L 24.832031 -35.878906 L 25.136719 -36.792969 L 25.542969 -37.5 L 25.644531 -38.210938 L 26.046875 -39.222656 L 26.453125 -40.035156 L 26.960938 -41.65625 L 27.265625 -42.671875 L 27.769531 -44.292969 L 28.175781 -45.609375 L 28.988281 -45.914062 L 29.089844 -43.582031 L 28.988281 -39.933594 L 28.886719 -36.082031 L 28.988281 -33.648438 L 28.785156 -32.839844 L 28.785156 -31.117188 L 28.683594 -30.40625 L 28.683594 -27.769531 L 28.582031 -26.960938 L 28.683594 -26.148438 L 28.582031 -24.730469 L 27.972656 -24.222656 Z M 24.933594 -24.222656 "/></g></g></g><g fill="rgb(0%, 100%, 100%)" fill-opacity="1"><g transform="translate(210.323124, 220.985215)"><g><path d="M 34.460938 0.203125 L 35.273438 0.101562 L 37.296875 0.101562 L 38.617188 0 L 39.222656 -0.101562 L 40.746094 -0.101562 L 41.960938 -0.40625 L 42.367188 -1.011719 L 42.570312 -1.722656 L 42.570312 -2.535156 L 42.773438 -3.242188 L 42.875 -4.054688 L 43.175781 -4.5625 L 43.378906 -5.777344 L 43.480469 -6.890625 L 43.683594 -7.601562 L 43.886719 -8.917969 L 43.988281 -9.628906 L 44.292969 -11.046875 L 44.394531 -12.667969 L 44.496094 -14.089844 L 44.699219 -14.695312 L 45 -15.8125 L 45.304688 -17.230469 L 45.40625 -17.941406 L 45.40625 -18.75 L 45.710938 -20.167969 L 45.8125 -20.878906 L 46.015625 -21.488281 L 46.21875 -22.195312 L 46.117188 -22.804688 L 46.726562 -24.933594 L 46.625 -25.542969 L 46.824219 -26.25 L 47.128906 -27.667969 L 47.332031 -28.785156 L 47.332031 -29.394531 L 47.738281 -31.21875 L 47.839844 -31.925781 L 48.347656 -33.246094 L 48.449219 -33.953125 L 48.449219 -35.273438 L 48.550781 -35.980469 L 48.851562 -36.589844 L 48.652344 -37.296875 L 48.652344 -38.109375 L 49.054688 -38.71875 L 49.15625 -39.425781 L 49.460938 -40.847656 L 49.5625 -41.453125 L 49.664062 -42.972656 L 50.171875 -44.394531 L 50.273438 -45.914062 L 50.476562 -47.535156 L 50.675781 -48.851562 L 50.777344 -49.460938 L 51.285156 -50.675781 L 51.386719 -51.285156 L 51.589844 -52.601562 L 51.691406 -53.414062 L 51.894531 -54.125 L 51.996094 -54.832031 L 52.300781 -56.152344 L 52.402344 -56.859375 L 52.601562 -58.179688 L 52.601562 -58.886719 L 52.703125 -60.203125 L 52.90625 -61.015625 L 53.109375 -61.726562 L 53.210938 -62.433594 L 53.210938 -63.246094 L 53.3125 -64.664062 L 53.71875 -65.878906 L 53.71875 -66.589844 L 53.820312 -67.199219 L 53.71875 -67.605469 L 54.125 -68.210938 L 54.023438 -68.921875 L 54.125 -69.53125 L 53.414062 -70.441406 L 52.703125 -70.746094 L 51.082031 -70.949219 L 48.246094 -70.949219 L 46.21875 -71.050781 L 42.570312 -71.050781 L 41.65625 -70.949219 L 41.046875 -70.847656 L 40.238281 -69.933594 L 40.136719 -69.328125 L 40.238281 -68.617188 L 40.035156 -67.90625 L 39.628906 -66.996094 L 39.527344 -66.386719 L 39.324219 -65.070312 L 39.121094 -64.460938 L 38.820312 -63.144531 L 38.820312 -62.332031 L 38.414062 -60.914062 L 38.3125 -60.203125 L 38.414062 -59.394531 L 38.414062 -58.179688 L 38.007812 -57.265625 L 37.90625 -55.949219 L 37.601562 -54.628906 L 37.601562 -53.921875 L 37.398438 -53.3125 L 37.296875 -52.601562 L 37.199219 -51.792969 L 37.097656 -51.082031 L 36.996094 -50.476562 L 36.488281 -49.15625 L 36.691406 -48.550781 L 36.183594 -47.027344 L 36.082031 -46.320312 L 36.082031 -45.609375 L 35.675781 -44.699219 L 35.472656 -43.582031 L 35.371094 -43.074219 L 33.246094 -43.175781 L 32.433594 -43.074219 L 31.21875 -43.175781 L 30.40625 -43.074219 L 27.46875 -43.175781 L 26.65625 -43.175781 L 25.945312 -43.277344 L 26.148438 -44.089844 L 26.25 -44.699219 L 26.453125 -45.507812 L 26.351562 -46.117188 L 26.554688 -46.824219 L 26.859375 -48.144531 L 26.757812 -48.851562 L 27.0625 -49.460938 L 27.164062 -50.171875 L 27.367188 -50.980469 L 27.570312 -51.488281 L 27.570312 -52.097656 L 27.667969 -53.3125 L 27.871094 -53.820312 L 27.972656 -55.136719 L 28.175781 -55.949219 L 28.378906 -56.65625 L 28.378906 -58.277344 L 28.683594 -58.988281 L 28.785156 -60.203125 L 28.988281 -61.625 L 29.394531 -63.550781 L 29.496094 -64.460938 L 29.796875 -65.375 L 29.898438 -66.792969 L 30 -67.402344 L 30.304688 -68.617188 L 30.203125 -69.328125 L 30.203125 -69.933594 L 30 -70.847656 L 28.988281 -71.050781 L 27.769531 -71.253906 L 26.757812 -70.949219 L 24.527344 -70.949219 L 23.109375 -71.050781 L 18.953125 -70.949219 L 16.417969 -70.949219 L 15.507812 -70.441406 L 15.40625 -69.328125 L 15.304688 -68.109375 L 15 -66.792969 L 14.796875 -66.082031 L 14.898438 -65.273438 L 14.59375 -64.5625 L 14.492188 -63.855469 L 14.292969 -63.144531 L 14.390625 -61.726562 L 13.683594 -60.40625 L 13.683594 -58.277344 L 13.378906 -56.960938 L 13.277344 -56.351562 L 13.175781 -55.542969 L 12.769531 -54.730469 L 12.769531 -53.3125 L 12.667969 -52.804688 L 12.367188 -50.675781 L 12.164062 -49.867188 L 11.960938 -48.550781 L 11.554688 -46.421875 L 11.453125 -45 L 11.351562 -44.292969 L 10.742188 -42.875 L 10.640625 -41.453125 L 10.441406 -40.035156 L 10.339844 -39.425781 L 9.832031 -36.488281 L 9.425781 -35.070312 L 9.425781 -34.257812 L 9.121094 -33.445312 L 8.816406 -32.738281 L 8.613281 -31.21875 L 8.613281 -30.507812 L 8.414062 -29.292969 L 8.109375 -28.277344 L 8.007812 -26.960938 L 7.601562 -25.542969 L 7.703125 -24.832031 L 7.5 -24.019531 L 7.398438 -23.414062 L 7.195312 -22.804688 L 6.6875 -19.257812 L 6.488281 -18.445312 L 6.183594 -17.027344 L 6.183594 -16.21875 L 6.082031 -15.507812 L 5.675781 -14.59375 L 5.269531 -13.886719 L 5.371094 -12.464844 L 4.964844 -11.046875 L 5.066406 -10.238281 L 4.863281 -9.527344 L 4.257812 -8.414062 L 4.460938 -7.703125 L 4.257812 -7.09375 L 4.257812 -6.386719 L 4.054688 -5.472656 L 3.953125 -4.460938 L 3.445312 -3.140625 L 3.039062 -2.230469 L 3.039062 -1.417969 L 3.445312 -0.304688 L 5.472656 -0.101562 L 8.714844 -0.101562 L 9.933594 0.101562 L 10.640625 -0.101562 L 11.351562 -0.203125 L 12.0625 0.101562 L 12.871094 0.101562 L 14.390625 -0.101562 L 15.609375 -0.203125 L 16.519531 -0.304688 L 17.332031 -0.710938 L 17.839844 -1.722656 L 18.042969 -3.242188 L 18.140625 -3.953125 L 18.34375 -4.765625 L 18.546875 -6.183594 L 18.546875 -6.890625 L 18.851562 -8.3125 L 18.953125 -9.121094 L 19.5625 -11.960938 L 19.765625 -13.480469 L 20.167969 -14.796875 L 20.269531 -15.304688 L 20.777344 -16.519531 L 20.675781 -17.128906 L 21.285156 -19.359375 L 21.792969 -21.691406 L 21.992188 -22.398438 L 21.992188 -24.121094 L 22.398438 -24.832031 L 22.601562 -26.148438 L 23.007812 -27.570312 L 23.109375 -28.378906 L 23.210938 -28.886719 L 24.933594 -28.785156 L 26.453125 -28.480469 L 29.695312 -28.785156 L 30.609375 -28.582031 L 31.320312 -28.582031 L 32.230469 -28.683594 L 32.027344 -27.46875 L 32.027344 -26.757812 L 31.824219 -25.339844 L 31.621094 -24.628906 L 31.320312 -23.210938 L 31.320312 -21.992188 L 31.117188 -20.980469 L 30.710938 -19.867188 L 30.101562 -16.824219 L 29.898438 -14.898438 L 29.59375 -13.378906 L 29.496094 -11.960938 L 29.292969 -11.453125 L 29.191406 -10.136719 L 29.089844 -9.425781 L 29.089844 -8.714844 L 28.988281 -8.007812 L 28.582031 -5.878906 L 28.582031 -4.460938 L 28.175781 -3.75 L 27.972656 -2.839844 L 27.871094 -1.925781 L 27.769531 -1.113281 L 28.378906 -0.203125 L 29.089844 -0.101562 L 29.796875 -0.101562 L 30.914062 0 L 33.648438 0 Z M 34.460938 0.203125 "/></g></g></g><g fill="rgb(0%, 100%, 100%)" fill-opacity="1"><g transform="translate(261.298996, 220.985215)"><g><path d="M 8.210938 0.203125 L 9.019531 0.101562 L 11.859375 0.203125 L 12.464844 -0.203125 L 12.871094 -0.914062 L 13.175781 -1.417969 L 13.480469 -2.535156 L 14.089844 -4.054688 L 15.101562 -5.980469 L 15.507812 -7.195312 L 15.8125 -7.90625 L 16.015625 -8.613281 L 16.722656 -9.933594 L 17.230469 -11.046875 L 19.96875 -11.046875 L 24.425781 -10.945312 L 26.046875 -10.742188 L 28.277344 -10.640625 L 28.378906 -9.832031 L 28.378906 -5.066406 L 28.277344 -4.054688 L 28.378906 -3.039062 L 28.480469 -1.214844 L 28.683594 -0.203125 L 29.089844 0.101562 L 30.609375 0.101562 L 31.925781 0.203125 L 32.941406 0.101562 L 33.648438 0 L 34.867188 0.101562 L 35.675781 0.101562 L 37.90625 0 L 39.324219 0 L 40.136719 0.101562 L 40.847656 0 C 41.25 0 41.554688 0.101562 41.960938 0 C 42.46875 -0.304688 42.367188 -1.214844 42.265625 -1.621094 L 42.265625 -3.75 L 42.164062 -5.980469 L 42.164062 -6.890625 L 42.0625 -7.703125 L 42.164062 -9.121094 L 42.164062 -10.640625 L 42.0625 -11.351562 L 41.960938 -12.667969 L 41.960938 -13.277344 L 41.757812 -17.128906 L 41.859375 -17.839844 L 41.757812 -19.257812 L 41.859375 -20.777344 L 41.757812 -22.296875 L 41.757812 -23.007812 L 41.65625 -27.667969 L 41.65625 -30.710938 L 41.554688 -31.519531 L 41.453125 -32.738281 L 41.453125 -36.691406 L 41.25 -37.804688 L 41.148438 -39.425781 L 41.148438 -40.035156 L 41.046875 -41.351562 L 41.148438 -41.960938 L 41.046875 -43.378906 L 41.046875 -45.40625 L 40.847656 -46.824219 L 40.847656 -49.054688 L 40.949219 -49.765625 L 40.847656 -51.285156 L 40.847656 -52.703125 L 40.644531 -54.730469 L 40.542969 -56.050781 L 40.542969 -57.46875 L 40.441406 -61.117188 L 40.441406 -62.941406 L 40.238281 -63.550781 L 40.238281 -65.78125 L 39.933594 -70.136719 L 39.222656 -70.644531 L 38.71875 -70.847656 L 37.097656 -70.847656 L 36.183594 -70.746094 L 35.472656 -70.949219 L 34.5625 -70.949219 L 32.636719 -70.847656 L 31.015625 -70.847656 L 30 -70.746094 L 28.074219 -70.847656 L 27.0625 -70.847656 L 26.351562 -70.746094 L 25.945312 -69.632812 L 25.644531 -69.023438 L 25.339844 -68.3125 L 24.425781 -66.488281 L 23.71875 -65.171875 L 23.109375 -63.347656 L 22.90625 -62.839844 L 22.5 -62.230469 L 21.894531 -61.117188 L 21.691406 -60.40625 L 21.488281 -59.800781 L 21.183594 -59.191406 L 20.980469 -58.480469 L 20.066406 -56.65625 L 19.765625 -55.949219 L 19.460938 -54.933594 L 18.851562 -54.023438 L 18.546875 -53.414062 L 18.042969 -52.097656 L 17.230469 -49.96875 L 16.824219 -49.359375 L 16.316406 -48.652344 L 16.015625 -47.230469 L 15.40625 -45.914062 L 15.203125 -45.40625 L 14.898438 -44.089844 L 14.390625 -43.378906 L 14.089844 -42.0625 L 13.785156 -41.453125 L 13.175781 -40.339844 L 12.667969 -38.617188 L 11.960938 -37.296875 L 11.65625 -36.488281 L 10.84375 -33.648438 L 10.539062 -33.042969 L 10.035156 -31.621094 L 9.730469 -31.015625 L 9.425781 -30.304688 L 9.324219 -29.695312 L 8.714844 -28.277344 L 8.515625 -27.570312 L 7.90625 -26.351562 L 7.398438 -25.542969 L 7.195312 -24.628906 L 6.992188 -23.917969 L 6.285156 -22.5 L 5.980469 -21.792969 L 5.472656 -20.472656 L 5.167969 -19.867188 L 5.066406 -19.15625 L 4.863281 -18.546875 L 4.359375 -17.332031 L 3.851562 -16.621094 L 3.648438 -16.015625 L 2.839844 -14.191406 L 2.433594 -12.871094 L 1.316406 -10.441406 L 0.8125 -9.222656 L 0.203125 -8.007812 L -0.8125 -4.964844 L -1.621094 -3.648438 L -2.230469 -2.433594 L -2.332031 -1.824219 L -2.535156 -1.113281 L -2.332031 -0.304688 L -1.417969 -0.101562 L 5.980469 0 L 6.6875 0.101562 Z M 24.933594 -24.222656 L 24.019531 -24.324219 L 22.90625 -24.425781 L 22.09375 -24.425781 L 21.386719 -25.035156 L 21.691406 -25.746094 L 21.894531 -26.65625 L 22.09375 -27.367188 L 22.601562 -29.089844 L 23.007812 -29.796875 L 23.515625 -31.320312 L 23.617188 -32.027344 L 24.222656 -34.257812 L 24.527344 -35.171875 L 24.832031 -35.878906 L 25.136719 -36.792969 L 25.542969 -37.5 L 25.644531 -38.210938 L 26.046875 -39.222656 L 26.453125 -40.035156 L 26.960938 -41.65625 L 27.265625 -42.671875 L 27.769531 -44.292969 L 28.175781 -45.609375 L 28.988281 -45.914062 L 29.089844 -43.582031 L 28.988281 -39.933594 L 28.886719 -36.082031 L 28.988281 -33.648438 L 28.785156 -32.839844 L 28.785156 -31.117188 L 28.683594 -30.40625 L 28.683594 -27.769531 L 28.582031 -26.960938 L 28.683594 -26.148438 L 28.582031 -24.730469 L 27.972656 -24.222656 Z M 24.933594 -24.222656 "/></g></g></g><g fill="rgb(0%, 0%, 0%)" fill-opacity="1"><g transform="translate(212.22353, 220.985215)"><g><path d="M 34.460938 0.203125 L 35.273438 0.101562 L 37.296875 0.101562 L 38.617188 0 L 39.222656 -0.101562 L 40.746094 -0.101562 L 41.960938 -0.40625 L 42.367188 -1.011719 L 42.570312 -1.722656 L 42.570312 -2.535156 L 42.773438 -3.242188 L 42.875 -4.054688 L 43.175781 -4.5625 L 43.378906 -5.777344 L 43.480469 -6.890625 L 43.683594 -7.601562 L 43.886719 -8.917969 L 43.988281 -9.628906 L 44.292969 -11.046875 L 44.394531 -12.667969 L 44.496094 -14.089844 L 44.699219 -14.695312 L 45 -15.8125 L 45.304688 -17.230469 L 45.40625 -17.941406 L 45.40625 -18.75 L 45.710938 -20.167969 L 45.8125 -20.878906 L 46.015625 -21.488281 L 46.21875 -22.195312 L 46.117188 -22.804688 L 46.726562 -24.933594 L 46.625 -25.542969 L 46.824219 -26.25 L 47.128906 -27.667969 L 47.332031 -28.785156 L 47.332031 -29.394531 L 47.738281 -31.21875 L 47.839844 -31.925781 L 48.347656 -33.246094 L 48.449219 -33.953125 L 48.449219 -35.273438 L 48.550781 -35.980469 L 48.851562 -36.589844 L 48.652344 -37.296875 L 48.652344 -38.109375 L 49.054688 -38.71875 L 49.15625 -39.425781 L 49.460938 -40.847656 L 49.5625 -41.453125 L 49.664062 -42.972656 L 50.171875 -44.394531 L 50.273438 -45.914062 L 50.476562 -47.535156 L 50.675781 -48.851562 L 50.777344 -49.460938 L 51.285156 -50.675781 L 51.386719 -51.285156 L 51.589844 -52.601562 L 51.691406 -53.414062 L 51.894531 -54.125 L 51.996094 -54.832031 L 52.300781 -56.152344 L 52.402344 -56.859375 L 52.601562 -58.179688 L 52.601562 -58.886719 L 52.703125 -60.203125 L 52.90625 -61.015625 L 53.109375 -61.726562 L 53.210938 -62.433594 L 53.210938 -63.246094 L 53.3125 -64.664062 L 53.71875 -65.878906 L 53.71875 -66.589844 L 53.820312 -67.199219 L 53.71875 -67.605469 L 54.125 -68.210938 L 54.023438 -68.921875 L 54.125 -69.53125 L 53.414062 -70.441406 L 52.703125 -70.746094 L 51.082031 -70.949219 L 48.246094 -70.949219 L 46.21875 -71.050781 L 42.570312 -71.050781 L 41.65625 -70.949219 L 41.046875 -70.847656 L 40.238281 -69.933594 L 40.136719 -69.328125 L 40.238281 -68.617188 L 40.035156 -67.90625 L 39.628906 -66.996094 L 39.527344 -66.386719 L 39.324219 -65.070312 L 39.121094 -64.460938 L 38.820312 -63.144531 L 38.820312 -62.332031 L 38.414062 -60.914062 L 38.3125 -60.203125 L 38.414062 -59.394531 L 38.414062 -58.179688 L 38.007812 -57.265625 L 37.90625 -55.949219 L 37.601562 -54.628906 L 37.601562 -53.921875 L 37.398438 -53.3125 L 37.296875 -52.601562 L 37.199219 -51.792969 L 37.097656 -51.082031 L 36.996094 -50.476562 L 36.488281 -49.15625 L 36.691406 -48.550781 L 36.183594 -47.027344 L 36.082031 -46.320312 L 36.082031 -45.609375 L 35.675781 -44.699219 L 35.472656 -43.582031 L 35.371094 -43.074219 L 33.246094 -43.175781 L 32.433594 -43.074219 L 31.21875 -43.175781 L 30.40625 -43.074219 L 27.46875 -43.175781 L 26.65625 -43.175781 L 25.945312 -43.277344 L 26.148438 -44.089844 L 26.25 -44.699219 L 26.453125 -45.507812 L 26.351562 -46.117188 L 26.554688 -46.824219 L 26.859375 -48.144531 L 26.757812 -48.851562 L 27.0625 -49.460938 L 27.164062 -50.171875 L 27.367188 -50.980469 L 27.570312 -51.488281 L 27.570312 -52.097656 L 27.667969 -53.3125 L 27.871094 -53.820312 L 27.972656 -55.136719 L 28.175781 -55.949219 L 28.378906 -56.65625 L 28.378906 -58.277344 L 28.683594 -58.988281 L 28.785156 -60.203125 L 28.988281 -61.625 L 29.394531 -63.550781 L 29.496094 -64.460938 L 29.796875 -65.375 L 29.898438 -66.792969 L 30 -67.402344 L 30.304688 -68.617188 L 30.203125 -69.328125 L 30.203125 -69.933594 L 30 -70.847656 L 28.988281 -71.050781 L 27.769531 -71.253906 L 26.757812 -70.949219 L 24.527344 -70.949219 L 23.109375 -71.050781 L 18.953125 -70.949219 L 16.417969 -70.949219 L 15.507812 -70.441406 L 15.40625 -69.328125 L 15.304688 -68.109375 L 15 -66.792969 L 14.796875 -66.082031 L 14.898438 -65.273438 L 14.59375 -64.5625 L 14.492188 -63.855469 L 14.292969 -63.144531 L 14.390625 -61.726562 L 13.683594 -60.40625 L 13.683594 -58.277344 L 13.378906 -56.960938 L 13.277344 -56.351562 L 13.175781 -55.542969 L 12.769531 -54.730469 L 12.769531 -53.3125 L 12.667969 -52.804688 L 12.367188 -50.675781 L 12.164062 -49.867188 L 11.960938 -48.550781 L 11.554688 -46.421875 L 11.453125 -45 L 11.351562 -44.292969 L 10.742188 -42.875 L 10.640625 -41.453125 L 10.441406 -40.035156 L 10.339844 -39.425781 L 9.832031 -36.488281 L 9.425781 -35.070312 L 9.425781 -34.257812 L 9.121094 -33.445312 L 8.816406 -32.738281 L 8.613281 -31.21875 L 8.613281 -30.507812 L 8.414062 -29.292969 L 8.109375 -28.277344 L 8.007812 -26.960938 L 7.601562 -25.542969 L 7.703125 -24.832031 L 7.5 -24.019531 L 7.398438 -23.414062 L 7.195312 -22.804688 L 6.6875 -19.257812 L 6.488281 -18.445312 L 6.183594 -17.027344 L 6.183594 -16.21875 L 6.082031 -15.507812 L 5.675781 -14.59375 L 5.269531 -13.886719 L 5.371094 -12.464844 L 4.964844 -11.046875 L 5.066406 -10.238281 L 4.863281 -9.527344 L 4.257812 -8.414062 L 4.460938 -7.703125 L 4.257812 -7.09375 L 4.257812 -6.386719 L 4.054688 -5.472656 L 3.953125 -4.460938 L 3.445312 -3.140625 L 3.039062 -2.230469 L 3.039062 -1.417969 L 3.445312 -0.304688 L 5.472656 -0.101562 L 8.714844 -0.101562 L 9.933594 0.101562 L 10.640625 -0.101562 L 11.351562 -0.203125 L 12.0625 0.101562 L 12.871094 0.101562 L 14.390625 -0.101562 L 15.609375 -0.203125 L 16.519531 -0.304688 L 17.332031 -0.710938 L 17.839844 -1.722656 L 18.042969 -3.242188 L 18.140625 -3.953125 L 18.34375 -4.765625 L 18.546875 -6.183594 L 18.546875 -6.890625 L 18.851562 -8.3125 L 18.953125 -9.121094 L 19.5625 -11.960938 L 19.765625 -13.480469 L 20.167969 -14.796875 L 20.269531 -15.304688 L 20.777344 -16.519531 L 20.675781 -17.128906 L 21.285156 -19.359375 L 21.792969 -21.691406 L 21.992188 -22.398438 L 21.992188 -24.121094 L 22.398438 -24.832031 L 22.601562 -26.148438 L 23.007812 -27.570312 L 23.109375 -28.378906 L 23.210938 -28.886719 L 24.933594 -28.785156 L 26.453125 -28.480469 L 29.695312 -28.785156 L 30.609375 -28.582031 L 31.320312 -28.582031 L 32.230469 -28.683594 L 32.027344 -27.46875 L 32.027344 -26.757812 L 31.824219 -25.339844 L 31.621094 -24.628906 L 31.320312 -23.210938 L 31.320312 -21.992188 L 31.117188 -20.980469 L 30.710938 -19.867188 L 30.101562 -16.824219 L 29.898438 -14.898438 L 29.59375 -13.378906 L 29.496094 -11.960938 L 29.292969 -11.453125 L 29.191406 -10.136719 L 29.089844 -9.425781 L 29.089844 -8.714844 L 28.988281 -8.007812 L 28.582031 -5.878906 L 28.582031 -4.460938 L 28.175781 -3.75 L 27.972656 -2.839844 L 27.871094 -1.925781 L 27.769531 -1.113281 L 28.378906 -0.203125 L 29.089844 -0.101562 L 29.796875 -0.101562 L 30.914062 0 L 33.648438 0 Z M 34.460938 0.203125 "/></g></g></g><g fill="rgb(0%, 0%, 0%)" fill-opacity="1"><g transform="translate(263.199402, 220.985215)"><g><path d="M 8.210938 0.203125 L 9.019531 0.101562 L 11.859375 0.203125 L 12.464844 -0.203125 L 12.871094 -0.914062 L 13.175781 -1.417969 L 13.480469 -2.535156 L 14.089844 -4.054688 L 15.101562 -5.980469 L 15.507812 -7.195312 L 15.8125 -7.90625 L 16.015625 -8.613281 L 16.722656 -9.933594 L 17.230469 -11.046875 L 19.96875 -11.046875 L 24.425781 -10.945312 L 26.046875 -10.742188 L 28.277344 -10.640625 L 28.378906 -9.832031 L 28.378906 -5.066406 L 28.277344 -4.054688 L 28.378906 -3.039062 L 28.480469 -1.214844 L 28.683594 -0.203125 L 29.089844 0.101562 L 30.609375 0.101562 L 31.925781 0.203125 L 32.941406 0.101562 L 33.648438 0 L 34.867188 0.101562 L 35.675781 0.101562 L 37.90625 0 L 39.324219 0 L 40.136719 0.101562 L 40.847656 0 C 41.25 0 41.554688 0.101562 41.960938 0 C 42.46875 -0.304688 42.367188 -1.214844 42.265625 -1.621094 L 42.265625 -3.75 L 42.164062 -5.980469 L 42.164062 -6.890625 L 42.0625 -7.703125 L 42.164062 -9.121094 L 42.164062 -10.640625 L 42.0625 -11.351562 L 41.960938 -12.667969 L 41.960938 -13.277344 L 41.757812 -17.128906 L 41.859375 -17.839844 L 41.757812 -19.257812 L 41.859375 -20.777344 L 41.757812 -22.296875 L 41.757812 -23.007812 L 41.65625 -27.667969 L 41.65625 -30.710938 L 41.554688 -31.519531 L 41.453125 -32.738281 L 41.453125 -36.691406 L 41.25 -37.804688 L 41.148438 -39.425781 L 41.148438 -40.035156 L 41.046875 -41.351562 L 41.148438 -41.960938 L 41.046875 -43.378906 L 41.046875 -45.40625 L 40.847656 -46.824219 L 40.847656 -49.054688 L 40.949219 -49.765625 L 40.847656 -51.285156 L 40.847656 -52.703125 L 40.644531 -54.730469 L 40.542969 -56.050781 L 40.542969 -57.46875 L 40.441406 -61.117188 L 40.441406 -62.941406 L 40.238281 -63.550781 L 40.238281 -65.78125 L 39.933594 -70.136719 L 39.222656 -70.644531 L 38.71875 -70.847656 L 37.097656 -70.847656 L 36.183594 -70.746094 L 35.472656 -70.949219 L 34.5625 -70.949219 L 32.636719 -70.847656 L 31.015625 -70.847656 L 30 -70.746094 L 28.074219 -70.847656 L 27.0625 -70.847656 L 26.351562 -70.746094 L 25.945312 -69.632812 L 25.644531 -69.023438 L 25.339844 -68.3125 L 24.425781 -66.488281 L 23.71875 -65.171875 L 23.109375 -63.347656 L 22.90625 -62.839844 L 22.5 -62.230469 L 21.894531 -61.117188 L 21.691406 -60.40625 L 21.488281 -59.800781 L 21.183594 -59.191406 L 20.980469 -58.480469 L 20.066406 -56.65625 L 19.765625 -55.949219 L 19.460938 -54.933594 L 18.851562 -54.023438 L 18.546875 -53.414062 L 18.042969 -52.097656 L 17.230469 -49.96875 L 16.824219 -49.359375 L 16.316406 -48.652344 L 16.015625 -47.230469 L 15.40625 -45.914062 L 15.203125 -45.40625 L 14.898438 -44.089844 L 14.390625 -43.378906 L 14.089844 -42.0625 L 13.785156 -41.453125 L 13.175781 -40.339844 L 12.667969 -38.617188 L 11.960938 -37.296875 L 11.65625 -36.488281 L 10.84375 -33.648438 L 10.539062 -33.042969 L 10.035156 -31.621094 L 9.730469 -31.015625 L 9.425781 -30.304688 L 9.324219 -29.695312 L 8.714844 -28.277344 L 8.515625 -27.570312 L 7.90625 -26.351562 L 7.398438 -25.542969 L 7.195312 -24.628906 L 6.992188 -23.917969 L 6.285156 -22.5 L 5.980469 -21.792969 L 5.472656 -20.472656 L 5.167969 -19.867188 L 5.066406 -19.15625 L 4.863281 -18.546875 L 4.359375 -17.332031 L 3.851562 -16.621094 L 3.648438 -16.015625 L 2.839844 -14.191406 L 2.433594 -12.871094 L 1.316406 -10.441406 L 0.8125 -9.222656 L 0.203125 -8.007812 L -0.8125 -4.964844 L -1.621094 -3.648438 L -2.230469 -2.433594 L -2.332031 -1.824219 L -2.535156 -1.113281 L -2.332031 -0.304688 L -1.417969 -0.101562 L 5.980469 0 L 6.6875 0.101562 Z M 24.933594 -24.222656 L 24.019531 -24.324219 L 22.90625 -24.425781 L 22.09375 -24.425781 L 21.386719 -25.035156 L 21.691406 -25.746094 L 21.894531 -26.65625 L 22.09375 -27.367188 L 22.601562 -29.089844 L 23.007812 -29.796875 L 23.515625 -31.320312 L 23.617188 -32.027344 L 24.222656 -34.257812 L 24.527344 -35.171875 L 24.832031 -35.878906 L 25.136719 -36.792969 L 25.542969 -37.5 L 25.644531 -38.210938 L 26.046875 -39.222656 L 26.453125 -40.035156 L 26.960938 -41.65625 L 27.265625 -42.671875 L 27.769531 -44.292969 L 28.175781 -45.609375 L 28.988281 -45.914062 L 29.089844 -43.582031 L 28.988281 -39.933594 L 28.886719 -36.082031 L 28.988281 -33.648438 L 28.785156 -32.839844 L 28.785156 -31.117188 L 28.683594 -30.40625 L 28.683594 -27.769531 L 28.582031 -26.960938 L 28.683594 -26.148438 L 28.582031 -24.730469 L 27.972656 -24.222656 Z M 24.933594 -24.222656 "/></g></g></g><g clip-path="url(#id1)"><g clip-path="url(#id2)"><g clip-path="url(#id3)"><path fill="rgb(100%, 8.628845%, 8.628845%)" d="M 182.476562 129.472656 L 223.261719 186.472656 L 165.9375 227.640625 L 157.585938 215.96875 L 203.253906 183.175781 L 170.820312 137.839844 L 182.476562 129.472656 " fill-opacity="1" fill-rule="nonzero"/></g></g></g><g clip-path="url(#id4)"><g clip-path="url(#id5)"><g clip-path="url(#id6)"><path fill="rgb(100%, 8.628845%, 8.628845%)" d="M 138.25 239.425781 L 150.644531 166.980469 L 167.644531 169.890625 L 155.253906 242.332031 Z M 138.25 239.425781 " fill-opacity="1" fill-rule="nonzero"/></g></g></g><g clip-path="url(#id7)"><path fill="rgb(100%, 8.628845%, 8.628845%)" d="M 315.875 137.738281 L 365.394531 187.34375 L 315.53125 237.289062 L 305.390625 227.136719 L 345.113281 187.34375 L 305.734375 147.894531 L 315.875 137.738281 " fill-opacity="1" fill-rule="nonzero"/></g><g clip-path="url(#id8)"><path fill="rgb(100%, 8.628845%, 8.628845%)" d="M 59.125 237.253906 L 9.605469 187.648438 L 59.46875 137.699219 L 69.605469 147.855469 L 29.882812 187.648438 L 69.261719 227.097656 L 59.125 237.253906 " fill-opacity="1" fill-rule="nonzero"/></g></svg>